<svg width="317" height="301" viewBox="0 0 317 301" fill="none" xmlns="http://www.w3.org/2000/svg">
<path d="M200.525 13.6867C100.769 -13.6026 35.1828 2.6648 10.4569 38.2589C-9.40065 66.8473 0.762106 91.643 26.3262 139.146C51.8902 186.649 29.5671 214.169 21.807 254.485C13.3346 298.712 81.3866 308.539 143.809 295.436C206.231 282.333 321.298 225.065 316.876 126.734C314.04 63.5715 254.461 28.4314 200.525 13.6867Z" fill="#263238"/>
<path d="M88.4342 27.6212C88.4341 27.8378 88.3695 28.0496 88.2485 28.2293C88.1274 28.4091 87.9556 28.5486 87.7549 28.6302C87.5541 28.7118 87.3336 28.7317 87.1215 28.6873C86.9094 28.643 86.7154 28.5364 86.5642 28.3812C86.413 28.226 86.3115 28.0293 86.2726 27.8161C86.2338 27.6029 86.2594 27.383 86.3462 27.1845C86.4329 26.9859 86.5769 26.8177 86.7597 26.7014C86.9426 26.5851 87.1559 26.526 87.3725 26.5315C87.6566 26.5388 87.9267 26.6568 88.125 26.8604C88.3233 27.064 88.4343 27.337 88.4342 27.6212Z" fill="#F0F0F0"/>
<path d="M92.9114 28.166C92.9155 28.2919 92.8821 28.4162 92.8155 28.5231C92.7488 28.63 92.6519 28.7147 92.537 28.7664C92.4221 28.8181 92.2944 28.8345 92.1702 28.8135C92.046 28.7925 91.9308 28.735 91.8393 28.6485C91.7478 28.5619 91.6841 28.45 91.6562 28.3271C91.6284 28.2043 91.6377 28.0759 91.683 27.9583C91.7283 27.8408 91.8075 27.7393 91.9105 27.6668C92.0136 27.5944 92.1359 27.5542 92.2618 27.5513C92.4292 27.5476 92.5914 27.61 92.713 27.7251C92.8346 27.8402 92.9059 27.9986 92.9114 28.166Z" fill="#FAFAFA"/>
<path d="M263.806 169.627C263.998 169.41 264.267 169.276 264.555 169.256C264.844 169.235 265.129 169.328 265.35 169.516C265.512 169.657 265.629 169.843 265.685 170.051C265.741 170.258 265.735 170.478 265.667 170.682C265.599 170.886 265.472 171.065 265.302 171.197C265.132 171.329 264.927 171.408 264.712 171.423C264.498 171.439 264.283 171.391 264.096 171.285C263.909 171.178 263.758 171.019 263.661 170.827C263.564 170.635 263.526 170.419 263.552 170.205C263.578 169.992 263.666 169.791 263.806 169.627Z" fill="#F0F0F0"/>
<path d="M260.782 166.282C260.894 166.155 261.051 166.077 261.22 166.065C261.388 166.053 261.555 166.109 261.683 166.219C261.746 166.273 261.798 166.339 261.836 166.414C261.874 166.488 261.896 166.569 261.902 166.653C261.908 166.736 261.897 166.819 261.87 166.898C261.843 166.977 261.801 167.05 261.746 167.113C261.634 167.24 261.477 167.318 261.308 167.329C261.14 167.341 260.973 167.286 260.845 167.176C260.781 167.122 260.729 167.055 260.692 166.981C260.654 166.906 260.632 166.825 260.626 166.742C260.62 166.659 260.631 166.575 260.658 166.496C260.685 166.417 260.727 166.344 260.782 166.282Z" fill="#FAFAFA"/>
<path d="M54.4815 267.958C54.6062 268.082 54.6913 268.24 54.726 268.412C54.7607 268.584 54.7435 268.763 54.6765 268.926C54.6095 269.088 54.4958 269.227 54.3498 269.325C54.2038 269.422 54.0321 269.475 53.8564 269.475C53.6807 269.475 53.509 269.422 53.3629 269.325C53.2169 269.227 53.1032 269.088 53.0363 268.926C52.9693 268.763 52.9521 268.584 52.9868 268.412C53.0215 268.24 53.1066 268.082 53.2313 267.958C53.3983 267.795 53.6227 267.703 53.8564 267.703C54.0901 267.703 54.3145 267.795 54.4815 267.958Z" fill="#FAFAFA"/>
<path d="M62.6746 271.835C62.8799 272.033 63.0217 272.289 63.082 272.568C63.1424 272.848 63.1185 273.139 63.0135 273.404C62.9085 273.67 62.7271 273.899 62.4921 274.062C62.2572 274.225 61.9792 274.314 61.6934 274.319C61.4076 274.324 61.1268 274.244 60.8864 274.089C60.6461 273.935 60.4569 273.712 60.3429 273.45C60.2289 273.188 60.1952 272.898 60.2459 272.617C60.2967 272.335 60.4297 272.075 60.6281 271.87C60.7601 271.733 60.9177 271.623 61.0921 271.547C61.2664 271.472 61.454 271.431 61.6441 271.428C61.8342 271.424 62.0231 271.459 62.1999 271.529C62.3767 271.598 62.538 271.702 62.6746 271.835Z" fill="#FAFAFA"/>
<path d="M218.825 231.833C218.826 232.121 218.742 232.402 218.583 232.642C218.425 232.882 218.198 233.069 217.933 233.18C217.667 233.291 217.375 233.321 217.093 233.266C216.811 233.211 216.551 233.073 216.347 232.87C216.143 232.667 216.004 232.408 215.948 232.126C215.891 231.844 215.919 231.552 216.029 231.286C216.139 231.02 216.325 230.793 216.564 230.633C216.803 230.473 217.084 230.387 217.372 230.387C217.756 230.387 218.125 230.539 218.397 230.81C218.669 231.081 218.823 231.449 218.825 231.833Z" fill="#FAFAFA"/>
<path d="M214.494 235.787C214.494 235.958 214.443 236.126 214.348 236.268C214.252 236.411 214.117 236.522 213.958 236.587C213.799 236.653 213.625 236.669 213.457 236.635C213.288 236.601 213.134 236.518 213.013 236.396C212.892 236.275 212.811 236.12 212.778 235.951C212.745 235.783 212.763 235.608 212.83 235.45C212.897 235.292 213.009 235.157 213.152 235.063C213.295 234.969 213.464 234.919 213.635 234.92C213.864 234.922 214.082 235.014 214.243 235.177C214.404 235.339 214.494 235.558 214.494 235.787Z" fill="#FAFAFA"/>
<path d="M212.05 230.387C212.05 230.526 212.009 230.661 211.932 230.775C211.855 230.89 211.746 230.98 211.618 231.033C211.491 231.086 211.35 231.099 211.215 231.072C211.079 231.045 210.955 230.979 210.857 230.881C210.76 230.784 210.693 230.659 210.666 230.524C210.639 230.388 210.653 230.248 210.706 230.12C210.759 229.992 210.848 229.883 210.963 229.807C211.078 229.73 211.213 229.689 211.351 229.689C211.536 229.689 211.714 229.762 211.845 229.893C211.976 230.024 212.05 230.202 212.05 230.387Z" fill="#FAFAFA"/>
<path d="M168.675 48.0095C168.676 48.1867 168.625 48.3602 168.527 48.5081C168.43 48.6561 168.291 48.7718 168.128 48.8405C167.964 48.9092 167.784 48.9279 167.61 48.8942C167.437 48.8605 167.277 48.7759 167.151 48.6512C167.025 48.5264 166.939 48.3671 166.904 48.1935C166.869 48.0199 166.886 47.8398 166.954 47.676C167.021 47.5122 167.136 47.3722 167.283 47.2737C167.43 47.1751 167.603 47.1225 167.781 47.1225C167.898 47.1216 168.014 47.1438 168.122 47.188C168.231 47.2322 168.329 47.2973 168.412 47.3798C168.495 47.4623 168.561 47.5604 168.606 47.6685C168.651 47.7765 168.675 47.8925 168.675 48.0095Z" fill="#FAFAFA"/>
<path d="M172.844 36.387L174.849 38.3567L177.608 37.8258C177.667 37.8156 177.727 37.8218 177.782 37.8439C177.838 37.866 177.886 37.903 177.921 37.9508C177.957 37.9986 177.978 38.0554 177.983 38.1147C177.989 38.174 177.977 38.2336 177.95 38.2868L176.693 40.8013L178.048 43.2599C178.078 43.3124 178.092 43.3721 178.089 43.4322C178.086 43.4923 178.066 43.5504 178.032 43.5999C177.998 43.6494 177.951 43.6883 177.895 43.7122C177.84 43.736 177.779 43.7439 177.72 43.7349L174.926 43.3088L172.998 45.3623C172.958 45.4068 172.906 45.4389 172.848 45.4548C172.791 45.4708 172.73 45.4699 172.672 45.4523C172.615 45.4346 172.564 45.401 172.525 45.3554C172.486 45.3098 172.461 45.254 172.453 45.1947L171.992 42.4008L169.45 41.2064C169.395 41.1815 169.348 41.1412 169.315 41.0904C169.283 41.0397 169.265 40.9805 169.265 40.92C169.265 40.8596 169.283 40.8004 169.315 40.7496C169.348 40.6988 169.395 40.6586 169.45 40.6337L171.943 39.3415L172.3 36.5476C172.309 36.4888 172.335 36.4339 172.374 36.3892C172.413 36.3445 172.464 36.3118 172.521 36.295C172.578 36.2782 172.639 36.2779 172.696 36.2942C172.753 36.3104 172.805 36.3426 172.844 36.387Z" fill="#FAFAFA"/>
<path d="M179.676 171.471L179.983 173.63L181.932 174.587C181.975 174.606 182.012 174.637 182.037 174.677C182.063 174.716 182.077 174.763 182.077 174.81C182.077 174.857 182.063 174.904 182.037 174.943C182.012 174.983 181.975 175.014 181.932 175.034L179.983 175.997L179.669 178.149C179.662 178.194 179.643 178.237 179.613 178.272C179.583 178.306 179.544 178.332 179.501 178.346C179.457 178.36 179.41 178.361 179.366 178.35C179.321 178.338 179.281 178.315 179.249 178.281L177.727 176.724L175.589 177.094C175.543 177.102 175.496 177.097 175.453 177.079C175.41 177.061 175.372 177.032 175.345 176.994C175.317 176.957 175.3 176.912 175.297 176.866C175.293 176.819 175.303 176.772 175.324 176.731L176.337 174.81L175.324 172.882C175.305 172.841 175.297 172.795 175.301 172.75C175.306 172.704 175.322 172.661 175.35 172.624C175.377 172.588 175.414 172.559 175.456 172.542C175.498 172.525 175.544 172.519 175.589 172.526L177.734 172.896L179.249 171.339C179.282 171.306 179.323 171.283 179.367 171.272C179.412 171.261 179.459 171.262 179.503 171.276C179.547 171.289 179.586 171.315 179.617 171.349C179.647 171.384 179.667 171.426 179.676 171.471Z" fill="#FAFAFA"/>
<path d="M254.461 100.507L228.925 85.7619L248.782 74.293L251.625 75.9344L248.782 80.8447L254.461 100.507Z" fill="#BA68C8"/>
<path d="M251.625 75.9344V77.5688L249.104 81.9413L248.782 80.8447L251.625 75.9344Z" fill="#BA68C8"/>
<path opacity="0.1" d="M251.625 75.9344V77.5688L249.104 81.9413L248.782 80.8447L251.625 75.9344Z" fill="black"/>
<path d="M216.59 78.6165C215.437 77.7854 213.796 77.8203 211.903 78.9099C208.459 80.9355 205.694 85.8108 205.728 89.8061C205.728 91.6221 206.336 92.9492 207.3 93.6477L205.756 92.9492C204.478 92.3345 203.661 90.8538 203.661 88.7164C203.661 84.6164 206.455 79.6363 210.003 77.5409C211.973 76.3884 213.733 76.3814 214.892 77.3104L216.59 78.6165Z" fill="#BA68C8"/>
<path d="M222.722 83.3871L215.43 97.2238L208.515 94.1785L207.321 93.6477C206.357 92.9492 205.763 91.6221 205.749 89.8061C205.715 85.8108 208.48 80.9355 211.924 78.9099C213.782 77.8203 215.458 77.7854 216.611 78.6166L216.848 78.8051L222.722 83.3871Z" fill="#455A64"/>
<path d="M217.393 93.501L216.869 90.5255L206.755 85.1962C206.113 86.6494 205.771 88.2174 205.749 89.8061C205.749 91.6221 206.357 92.9492 207.321 93.6477L208.515 94.1785L215.43 97.2238L217.393 93.501Z" fill="#37474F"/>
<path d="M296.697 131.316C294.927 127.071 292.7 123.031 290.055 119.268C285.543 112.898 279.801 106.513 276.868 104.6C271.217 100.877 225.879 80.3138 225.879 80.3138C224.364 79.6154 222.387 79.8249 220.187 81.1101C215.507 83.8551 211.749 90.4836 211.805 95.9177C211.805 98.3973 212.643 100.185 213.963 101.149C213.963 101.149 249.041 126.839 261.18 132.58C266.817 135.242 274.451 136.073 281.01 136.24H281.708C286.042 136.31 290.377 136.109 294.686 135.64C295.34 135.563 295.943 135.247 296.38 134.754C296.817 134.26 297.056 133.623 297.054 132.965C297.025 132.399 296.905 131.843 296.697 131.316Z" fill="#FAFAFA"/>
<path d="M220.208 81.1031C218.362 82.2414 216.768 83.7433 215.521 85.5175L250.815 99.3332L252.428 98.3973L221.521 80.4605C221.069 80.6434 220.63 80.8581 220.208 81.1031Z" fill="#F0F0F0"/>
<path d="M294.7 135.619C295.265 135.552 295.795 135.307 296.212 134.919C296.629 134.531 296.911 134.02 297.019 133.461C293.924 135.137 277.58 131.826 271.483 129.032C266.677 126.832 240.275 110.334 240.275 110.334L214.739 93.955L212.238 92.4882C211.955 93.6071 211.812 94.7566 211.812 95.9107C211.812 98.3903 212.65 100.178 213.97 101.142C213.97 101.142 249.048 126.832 261.187 132.573C266.824 135.235 274.458 136.066 281.017 136.233H281.715C286.049 136.303 290.384 136.102 294.693 135.633L294.7 135.619Z" fill="#F0F0F0"/>
<path d="M228.869 81.6479C227.402 81.2847 225.614 81.6479 223.686 82.7585C218.797 85.6362 214.851 92.572 214.892 98.2576C214.831 99.8471 215.271 101.416 216.15 102.742L213.963 101.149C212.643 100.185 211.826 98.3973 211.805 95.9177C211.763 90.4836 215.521 83.8551 220.187 81.1101C222.373 79.8249 224.378 79.6293 225.879 80.3138L228.869 81.6479Z" fill="#BA68C8"/>
<path opacity="0.1" d="M221.521 80.4605C221.069 80.6434 220.63 80.8581 220.208 81.1031C218.362 82.2414 216.768 83.7433 215.521 85.5175L219.125 86.9144C220.369 85.2439 221.917 83.8223 223.686 82.7236C224.007 82.542 224.322 82.3813 224.629 82.2346L221.521 80.4605Z" fill="black"/>
<path opacity="0.1" d="M215.472 102.288L216.171 102.777C215.3 101.447 214.863 99.8805 214.92 98.2925C214.924 96.9852 215.1 95.6841 215.444 94.423L214.746 93.9899L212.245 92.5231C212.189 92.7676 212.133 93.012 212.085 93.2635L212.043 93.501C212.008 93.7105 211.973 93.9201 211.945 94.1226C211.917 94.3252 211.945 94.416 211.896 94.5696C211.847 94.7233 211.896 94.87 211.847 95.0236C211.847 95.338 211.812 95.6453 211.847 95.9456C211.847 98.4252 212.685 100.213 214.005 101.177L215.472 102.288Z" fill="black"/>
<path d="M214.739 93.948L240.275 108.693L206.224 105.417L197.717 107.058L194.881 105.417L214.739 93.948Z" fill="#BA68C8"/>
<path d="M194.881 105.417V107.058L197.717 108.693L206.224 107.058L240.275 110.334V108.693L206.224 105.417L197.717 107.058L194.881 105.417Z" fill="#BA68C8"/>
<path d="M222.443 82.9541L250.815 99.3332L228.114 66.5749L225.279 58.3818L222.443 56.7404V82.9541Z" fill="#BA68C8"/>
<path opacity="0.15" d="M222.443 82.9541L250.815 99.3332L228.114 66.5749L225.279 58.3818L222.443 56.7404V82.9541Z" fill="black"/>
<path d="M224.056 55.8115L222.443 56.7404L225.279 58.3818L228.114 66.5749L250.815 99.3332L252.428 98.3973L229.735 65.639L226.892 57.4459L224.056 55.8115Z" fill="#BA68C8"/>
<path d="M297.068 132.944C297.033 132.385 296.907 131.835 296.697 131.316C295.671 128.815 294.469 126.39 293.1 124.059C288.504 122.662 284.02 132.573 286.57 136.199C291.354 136.052 294.693 135.633 294.693 135.633C295.351 135.557 295.957 135.24 296.396 134.744C296.834 134.247 297.074 133.606 297.068 132.944Z" fill="#BA68C8"/>
<path opacity="0.1" d="M226.892 57.4459L225.279 58.3818L228.114 66.5749L229.735 65.639L226.892 57.4459Z" fill="black"/>
<path opacity="0.05" d="M229.735 65.639L252.428 98.3972L250.815 99.3332L228.114 66.5749L229.735 65.639Z" fill="black"/>
<path opacity="0.15" d="M194.881 105.417L197.717 107.058V108.693L194.881 107.058V105.417Z" fill="black"/>
<path opacity="0.05" d="M206.224 107.058V105.417L240.275 108.693V110.334L206.224 107.058Z" fill="black"/>
<path opacity="0.1" d="M206.224 105.417L197.717 107.058V108.693L206.224 107.058V105.417Z" fill="black"/>
<path opacity="0.1" d="M295.3 135.472L295.58 135.353L295.74 135.263L295.964 135.116L296.118 134.997L296.306 134.816L296.439 134.676L296.593 134.466L296.697 134.306C296.744 134.228 296.784 134.146 296.816 134.061C296.845 134.007 296.87 133.951 296.893 133.894C296.949 133.756 296.991 133.613 297.019 133.467C295.517 134.278 290.9 133.922 285.843 133.013C285.727 134.125 285.972 135.244 286.542 136.206H287.282H287.519L288.218 136.171H288.337L290.502 136.045H290.544L291.193 135.996L293.289 135.821H293.422L294.288 135.731H294.385H294.518H294.581H294.7C294.854 135.715 295.007 135.683 295.154 135.633L295.3 135.472Z" fill="black"/>
<path opacity="0.1" d="M204.674 84.1275C204.041 85.5882 203.704 87.1597 203.682 88.7514C203.682 90.9027 204.506 92.3694 205.777 92.9841L207.321 93.6826C206.357 92.9841 205.763 91.657 205.749 89.841C205.771 88.2523 206.113 86.6843 206.755 85.2311L204.674 84.1275Z" fill="black"/>
<path d="M282.162 110.334C282.162 110.334 279.131 109.342 274.318 111.773C271.228 113.335 268.648 115.746 266.88 118.723L273.99 121.999C273.99 121.999 279.326 116.641 286.025 115.049C284.902 113.349 283.608 111.769 282.162 110.334Z" fill="#455A64"/>
<path d="M252.428 119.051C252.418 118.041 252.506 117.033 252.694 116.041C253.008 114.392 252.757 112.653 251.625 111.996C250.493 111.34 248.985 112.038 248.636 113.659C248.437 114.639 248.327 115.635 248.307 116.634L252.428 119.051Z" fill="#E0E0E0"/>
<path d="M248.663 116.355L248.286 116.201C247.938 116.059 247.581 115.94 247.218 115.845C245.829 115.453 244.375 115.344 242.943 115.524C241.849 115.668 240.796 116.028 239.843 116.585C238.891 117.141 238.059 117.882 237.397 118.765L237.104 119.149L237.027 119.247V119.303L236.901 119.526C236.748 119.833 236.552 120.141 236.426 120.455C236.172 121.098 235.964 121.759 235.805 122.432C235.446 123.941 235.185 125.471 235.022 127.014C234.659 130.262 234.464 133.81 234.156 137.581C233.982 139.467 233.821 141.409 233.5 143.393C233.221 145.46 232.703 147.487 231.956 149.435C231.091 151.468 229.797 153.29 228.163 154.778C226.505 156.293 224.573 157.479 222.471 158.27C220.374 159.11 218.168 159.646 215.919 159.863C213.672 160.097 211.408 160.111 209.158 159.905C204.719 159.409 200.365 158.332 196.208 156.699C192.164 155.155 188.211 153.716 184.334 152.508C180.633 151.299 176.855 150.338 173.026 149.63C172.125 149.428 171.217 149.344 170.337 149.211C169.457 149.078 168.577 148.967 167.718 148.925C166.859 148.883 166.013 148.778 165.189 148.757H162.752C159.878 148.804 157.02 149.191 154.237 149.91L152.442 150.377L150.829 150.978L149.341 151.523C148.88 151.733 148.454 151.956 148.042 152.152C147.225 152.571 146.47 152.885 145.863 153.255L144.326 154.205L143.041 154.994L141.092 152.096L142.489 151.258L144.193 150.252C144.892 149.868 145.702 149.553 146.61 149.092C147.064 148.89 147.539 148.652 148.049 148.443L149.69 147.863L151.478 147.248L153.448 146.773C156.478 146.057 159.582 145.7 162.696 145.712L165.301 145.768C166.181 145.816 167.068 145.928 167.976 146.005C168.884 146.082 169.799 146.215 170.728 146.368C171.657 146.522 172.6 146.634 173.522 146.857C177.453 147.666 181.327 148.735 185.117 150.056C189.042 151.383 193.044 152.934 197.039 154.554C200.981 156.199 205.121 157.319 209.354 157.886C211.465 158.12 213.593 158.148 215.71 157.97C217.796 157.817 219.849 157.365 221.807 156.629C223.729 155.943 225.502 154.898 227.032 153.549C228.525 152.253 229.717 150.646 230.524 148.841C231.252 147.02 231.768 145.122 232.061 143.183C232.41 141.262 232.62 139.349 232.829 137.484C233.213 133.747 233.472 130.185 233.912 126.902C234.109 125.317 234.41 123.747 234.813 122.201C235.007 121.459 235.257 120.733 235.56 120.029C235.707 119.687 235.902 119.407 236.063 119.1L236.196 118.876V118.821L236.238 118.758L236.322 118.653L236.643 118.241C237.457 117.214 238.478 116.369 239.639 115.761C240.627 115.254 241.699 114.932 242.803 114.811C244.333 114.648 245.879 114.795 247.35 115.244C247.739 115.351 248.12 115.486 248.489 115.649L248.859 115.81L248.663 116.355Z" fill="#E0E0E0"/>
<path d="M92.2618 208.148C87.617 209.119 82.8744 209.957 82.3924 212.709C81.9105 215.461 85.9686 220.658 95.2024 218.457C104.436 216.257 105.156 212.821 104.548 210.264C103.94 207.708 95.9288 207.38 92.2618 208.148Z" fill="#263238"/>
<path d="M157.96 199.822C155.425 199.641 151.387 204.216 148.468 207.785C145.548 211.354 143.062 214.93 143.893 216.383C144.724 217.836 147.769 221.084 153.874 216.816C159.979 212.548 161.718 206.891 161.599 204.355C161.48 201.82 160.132 199.983 157.96 199.822Z" fill="#263238"/>
<path d="M100.986 194.996C100.521 196.056 100.276 197.199 100.265 198.356C100.255 199.513 100.478 200.661 100.923 201.729C104.681 210.893 103.137 226.071 103.018 234.355C95.4608 240.201 89.468 235.347 89.468 235.347C89.468 235.347 80.765 199.864 80.4856 195.534C80.0735 188.982 82.2667 180.167 86.3528 171.276C89.4797 164.295 92.9603 157.479 96.781 150.852L139.709 153.646C141.491 158.219 142.681 163 143.25 167.874C144.109 175.655 144.647 185.497 146.743 191.853C147.111 192.95 147.699 193.962 148.47 194.826C149.24 195.691 150.178 196.39 151.227 196.882C160.167 201.142 169.226 213.415 174.73 219.603C173.04 229.032 165.315 229.493 165.315 229.493C165.315 229.493 135.015 209.077 131.9 206.053C127.185 201.471 122.715 195.038 119.754 185.692C116.792 176.347 114.99 171.772 114.99 171.772C114.99 171.772 103.703 188.898 100.986 194.996Z" fill="#F0F0F0"/>
<path d="M84.1247 216.837C84.1247 216.837 86.6601 226.616 86.7788 229.368C86.8766 231.673 86.1851 233.489 83.2236 235.395C78.9699 238.133 72.4113 241.046 68.1786 244.28C65.4755 246.375 65.8666 249.421 70.2111 251.265C72.8793 252.382 78.3832 253.646 85.1374 251.265C88.8184 249.973 93.3305 245.893 96.4666 245.712C99.6028 245.53 105.065 245.321 106.888 242.478C107.496 238.036 105.54 234.557 105.065 231.596C104.269 226.706 104.45 216.879 104.408 213.889C104.408 213.889 101.789 217.829 94.6297 218.779C87.4703 219.729 84.1247 216.837 84.1247 216.837Z" fill="#455A64"/>
<path d="M103.668 210.551C103.842 212.059 103.123 213.575 101.265 214.958C97.5492 217.71 91.0954 218.45 86.8487 216.614C84.886 215.768 83.7405 214.518 83.4401 213.121C83.4401 213.121 83.2166 211.997 83.7544 211.522L83.3074 209.58C82.7154 209.837 82.2061 210.253 81.8362 210.782C81.4663 211.311 81.2503 211.932 81.212 212.576C81.1421 214.05 81.9105 217.584 86.5204 219.338C91.1303 221.091 98.7925 220.197 102.585 217.305C106.029 214.672 106.147 210.872 105.47 209.335C105.236 208.755 104.831 208.26 104.308 207.916C103.785 207.573 103.169 207.398 102.543 207.415L102.837 209.252C103.067 209.388 103.262 209.577 103.406 209.803C103.551 210.028 103.64 210.284 103.668 210.551Z" fill="#BA68C8"/>
<path d="M148.51 219.023C148.51 219.023 156.116 224.513 158.065 226.49C159.685 228.138 160.384 229.982 159.462 233.349C158.135 238.238 155.739 242.701 154.761 247.94C154.139 251.286 156.493 253.304 160.929 251.74C163.66 250.783 167.683 248.729 172.006 243.03C174.751 239.412 174.8 234.418 177 232.175C179.201 229.933 182.211 225.561 181.659 222.229C179.138 218.52 176.26 217.815 173.92 215.943C170.037 212.828 163.604 205.466 161.571 203.245C161.571 203.245 162.27 207.918 157.569 213.408C152.868 218.898 148.51 219.023 148.51 219.023Z" fill="#455A64"/>
<path d="M158.805 201.268C159.944 202.267 160.426 203.873 159.972 206.157C159.064 210.697 154.768 215.573 150.389 217.054C148.356 217.752 146.666 217.577 145.499 216.753C145.499 216.753 144.57 216.09 144.654 215.356L142.992 214.197C142.731 214.789 142.637 215.441 142.721 216.083C142.805 216.724 143.063 217.331 143.467 217.836C144.41 218.967 147.343 221.084 151.946 219.296C156.549 217.508 161.627 211.71 162.5 207.024C163.289 202.763 160.831 199.864 159.294 199.173C158.725 198.891 158.084 198.787 157.455 198.874C156.826 198.961 156.238 199.236 155.767 199.662L157.352 200.891C157.607 200.828 157.873 200.829 158.127 200.895C158.38 200.961 158.614 201.089 158.805 201.268Z" fill="#BA68C8"/>
<path d="M104.38 163.886C104.38 163.886 106.867 169.551 109.689 171.981C109.689 171.981 104.681 183.743 102.222 189.443C99.7634 195.142 100.28 198.775 100.28 198.775C100.219 197.471 100.458 196.171 100.979 194.975C103.696 188.849 114.948 171.751 114.948 171.751C114.948 171.751 110.003 169.802 104.38 163.886Z" fill="#E0E0E0"/>
<path d="M62.0041 109.664C61.5431 108.756 60.9634 104.195 61.145 101.673C61.3056 99.5218 59.3499 98.6068 58.0787 100.353C56.8075 102.099 57.1078 103.58 56.4442 103.245C55.7807 102.909 54.5933 99.6964 53.804 96.7558C53.1056 94.1086 50.4863 89.7222 46.0091 94.2623C41.5319 98.8024 43.9137 105.647 45.4363 109.21C46.959 112.772 51.4781 117.354 54.3139 118.632L62.0041 109.664Z" fill="#455A64"/>
<path d="M63.5686 112.304C64.337 110.956 62.6187 109.51 60.7748 109.377C59.6968 109.356 58.6259 109.556 57.6286 109.966C56.6313 110.375 55.7289 110.986 54.9774 111.759C52.882 113.792 52.0788 116.872 52.882 119.198C53.7761 121.838 55.8994 121.412 55.8994 121.412L63.5686 112.304Z" fill="#BA68C8"/>
<path d="M104.136 118.611C101.775 122.243 92.178 130.702 88.2806 133.579C84.3831 136.457 79.7592 138.615 77.0212 138.538C74.7302 138.476 65.8457 134.082 55.8785 121.412C55.0333 120.336 54.272 118.464 54.4815 117.158C55.0822 113.847 57.1148 112.024 59.8109 111.445C60.4574 111.335 61.1192 111.355 61.7581 111.502C62.397 111.65 63.0005 111.922 63.5337 112.304C66.5581 114.972 73.8222 121.838 76.7488 122.585C80.2411 121.712 83.9989 116.872 87.3097 112.898C90.6204 108.923 95.3281 101.478 99.5259 102.504C108.397 104.67 106.615 116.809 104.136 118.611Z" fill="#F0F0F0"/>
<path d="M96.9835 145.858C95.5865 146.906 95.5865 149.868 97.5772 151.97C99.5678 154.072 105.407 158.361 114.885 159.653C125.523 161.092 133.919 157.998 137.935 155.253C142.091 152.41 139.807 149.574 139.807 149.574L96.9835 145.858Z" fill="#BA68C8"/>
<path d="M125.55 104.72C138.209 99.476 144.22 84.9631 138.977 72.3041C133.733 59.6451 119.22 53.6337 106.561 58.8772C93.9022 64.1207 87.8908 78.6336 93.1343 91.2926C98.3779 103.952 112.891 109.963 125.55 104.72Z" fill="#455A64"/>
<path d="M110.988 110.921C111.477 117.521 107.342 123.207 101.761 123.619C96.1803 124.031 92.7787 118.73 92.2898 112.129C91.8008 105.529 95.4539 99.0049 100.12 100.542C105.714 100.416 110.492 104.32 110.988 110.921Z" fill="#BA68C8"/>
<path opacity="0.1" d="M110.988 110.921C111.477 117.521 107.342 123.207 101.761 123.619C96.1803 124.031 92.7787 118.73 92.2898 112.129C91.8008 105.529 95.4539 99.0049 100.12 100.542C105.714 100.416 110.492 104.32 110.988 110.921Z" fill="black"/>
<path d="M99.3862 100.514C97.654 102.281 95.391 107.065 96.0196 114.274C96.4596 119.379 98.2966 124.052 97.8286 129.996C97.5004 134.11 95.0976 140.473 96.9835 145.858C97.9753 148.687 104.618 154.303 114.704 156.266C124.79 158.228 137.963 153.604 140.331 148.694C142.789 143.602 143.516 130.408 143.013 124.066C142.51 117.724 140.875 104.809 135.567 99.3053C120.815 90.6861 109.346 92.9422 99.3862 100.514Z" fill="#FAFAFA"/>
<path d="M110.555 88.1227C116.225 88.1227 120.822 83.5258 120.822 77.8552C120.822 72.1846 116.225 67.5877 110.555 67.5877C104.884 67.5877 100.287 72.1846 100.287 77.8552C100.287 83.5258 104.884 88.1227 110.555 88.1227Z" fill="#263238"/>
<path d="M128.296 85.1542C128.296 85.1542 126.634 92.9701 125.97 94.2344C125.525 95.026 124.792 95.6161 123.924 95.8828L124.042 90.3858L128.296 85.1542Z" fill="#263238"/>
<path d="M126.215 73.9578C126.796 73.8901 127.385 73.9563 127.937 74.1512C128.489 74.3461 128.989 74.6646 129.4 75.0823C130.796 76.4792 130.007 80.8656 128.296 85.1542L125.167 85.5175L126.215 73.9578Z" fill="#263238"/>
<path d="M124.224 85.5244C124.852 85.9016 125.754 84.6932 126.529 83.883C127.304 83.0728 129.833 81.9622 131.09 84.6234C132.347 87.2846 129.979 90.9096 127.989 91.5383C124.552 92.6139 124.042 90.4137 124.042 90.4137L123.742 100.521C123.742 100.521 124.531 102.93 118.448 103.755C112.364 104.579 110.576 102.651 112.573 100.192L112.622 98.6976C111.094 98.9399 109.544 99.0195 107.998 98.9351C105.47 98.5439 103.884 96.5533 103.109 93.8223C101.88 89.4359 101.412 85.8876 102.46 77.2615C103.598 67.8042 114.606 67.6994 120.543 71.4433C126.48 75.1871 124.224 85.5244 124.224 85.5244Z" fill="#FFA8A7"/>
<path d="M124.224 86.5721C124.545 86.5721 125.747 84.5885 126.529 83.876C127.604 82.8982 126.235 74.0974 126.215 73.9577C126.138 73.4968 126.319 73.0008 126.215 72.477C126.065 71.8266 125.813 71.2041 125.467 70.633C124.804 69.5015 123.651 68.9218 122.534 68.2512C120.603 67.0918 118.38 66.5101 116.129 66.5749C113.866 66.5749 112.203 67.001 109.346 67.5877C106.965 68.0836 103.968 68.4887 101.663 67.7413C100.12 67.2454 100.266 69.4456 100.825 71.2896C101.243 72.577 101.984 73.7361 102.976 74.6562C104.373 76.0532 106.951 76.8215 108.823 76.9123C113.789 77.1707 119.209 76.0741 120.068 75.9554C121.234 75.7947 121.556 76.1649 122.163 79.2522C122.708 81.9622 123.162 86.5512 124.224 86.5721Z" fill="#263238"/>
<path d="M126.208 74.6562L130.007 72.6167C129.886 72.3603 129.715 72.131 129.502 71.9429C129.29 71.7548 129.042 71.6117 128.773 71.5222C128.504 71.4327 128.22 71.3988 127.937 71.4225C127.655 71.4461 127.38 71.5268 127.129 71.6598C126.62 71.9448 126.24 72.4152 126.068 72.9733C125.896 73.5313 125.946 74.134 126.208 74.6562Z" fill="#263238"/>
<path d="M112.622 98.6906C112.622 98.6906 118.252 97.5521 120.222 96.5044C121.381 95.9041 122.33 94.9665 122.946 93.8153C122.647 94.9667 122.123 96.0471 121.402 96.9933C119.963 98.8303 112.573 100.185 112.573 100.185L112.622 98.6906Z" fill="#F28F8F"/>
<path d="M113.621 85.1403C113.629 85.3624 113.703 85.5772 113.832 85.7578C113.962 85.9384 114.142 86.0769 114.349 86.1559C114.557 86.235 114.784 86.2511 115 86.2022C115.217 86.1534 115.415 86.0417 115.569 85.8813C115.723 85.7208 115.826 85.5186 115.865 85.2998C115.905 85.0811 115.879 84.8556 115.791 84.6514C115.704 84.4472 115.558 84.2734 115.372 84.1516C115.186 84.0299 114.968 83.9656 114.746 83.9668C114.595 83.9696 114.446 84.0021 114.307 84.0627C114.169 84.1232 114.044 84.2105 113.939 84.3196C113.835 84.4286 113.753 84.5573 113.698 84.6982C113.644 84.839 113.617 84.9893 113.621 85.1403Z" fill="#263238"/>
<path d="M114.815 80.8796L117.232 82.2137C117.406 81.8827 117.444 81.4972 117.338 81.1387C117.233 80.7802 116.992 80.4769 116.666 80.2929C116.507 80.2054 116.332 80.1512 116.151 80.1335C115.971 80.1158 115.788 80.1349 115.615 80.1898C115.442 80.2446 115.282 80.3341 115.145 80.4526C115.007 80.5712 114.895 80.7165 114.815 80.8796Z" fill="#263238"/>
<path d="M113.132 91.9085L110.555 92.8723C110.611 93.0459 110.701 93.2064 110.82 93.3443C110.939 93.4822 111.085 93.5946 111.249 93.6748C111.412 93.755 111.591 93.8014 111.773 93.8111C111.955 93.8208 112.137 93.7938 112.308 93.7315C112.653 93.5911 112.93 93.3237 113.084 92.9844C113.237 92.6452 113.255 92.2601 113.132 91.9085Z" fill="#F28F8F"/>
<path d="M103.549 81.8225L105.756 80.1253C105.652 79.9762 105.519 79.8498 105.365 79.7538C105.211 79.6578 105.038 79.5942 104.859 79.5667C104.679 79.5393 104.496 79.5486 104.32 79.5942C104.144 79.6398 103.979 79.7207 103.835 79.8319C103.543 80.0648 103.351 80.4004 103.297 80.7704C103.244 81.1404 103.334 81.5167 103.549 81.8225Z" fill="#263238"/>
<path d="M104.227 84.826C104.235 85.0478 104.308 85.2623 104.437 85.4428C104.567 85.6233 104.746 85.7617 104.953 85.841C105.161 85.9203 105.387 85.9368 105.603 85.8885C105.82 85.8402 106.018 85.7293 106.172 85.5695C106.326 85.4097 106.43 85.2081 106.47 84.9898C106.51 84.7716 106.486 84.5462 106.399 84.3419C106.312 84.1376 106.167 83.9633 105.982 83.8407C105.797 83.7181 105.58 83.6527 105.358 83.6525C105.207 83.6553 105.057 83.6878 104.919 83.7482C104.78 83.8087 104.654 83.8959 104.549 84.0048C104.444 84.1138 104.362 84.2424 104.306 84.3833C104.251 84.5242 104.224 84.6746 104.227 84.826Z" fill="#263238"/>
<path d="M110.338 82.7166L109.968 89.5057L106.42 88.2974L110.338 82.7166Z" fill="#F28F8F"/>
<path d="M116.052 106.981C111.07 106.981 106.2 105.504 102.058 102.736C97.9158 99.9683 94.6876 96.0343 92.7814 91.4316C90.8753 86.8289 90.3769 81.7643 91.3494 76.8783C92.3218 71.9923 94.7213 67.5045 98.2444 63.9823C101.768 60.4601 106.256 58.0619 111.142 57.0908C116.029 56.1198 121.093 56.6196 125.695 58.527C130.297 60.4344 134.231 63.6637 136.997 67.8066C139.764 71.9495 141.24 76.8198 141.239 81.8016C141.229 88.4781 138.573 94.8784 133.851 99.5987C129.129 104.319 122.728 106.974 116.052 106.981ZM116.052 57.39C111.217 57.39 106.49 58.8238 102.47 61.51C98.4498 64.1962 95.3164 68.0142 93.4661 72.4812C91.6158 76.9482 91.1317 81.8636 92.075 86.6058C93.0183 91.3479 95.3466 95.7039 98.7655 99.1228C102.184 102.542 106.54 104.87 111.282 105.813C116.025 106.757 120.94 106.272 125.407 104.422C129.874 102.572 133.692 99.4384 136.378 95.4182C139.064 91.398 140.498 86.6716 140.498 81.8365C140.502 78.6238 139.872 75.4419 138.645 72.4726C137.418 69.5034 135.618 66.8052 133.348 64.5322C131.077 62.2591 128.381 60.4559 125.413 59.2256C122.446 57.9953 119.264 57.3621 116.052 57.3621V57.39Z" fill="#BA68C8"/>
<path d="M129.84 106.835C122.226 111.235 109.884 111.235 102.264 106.835C97.4375 104.041 95.4329 100.954 96.7321 97.3635C100.923 103.426 108.138 106.611 116.052 106.611C123.965 106.611 131.118 103.517 135.295 97.4543C136.594 101.044 134.666 104.048 129.84 106.835Z" fill="#BA68C8"/>
<path d="M104.52 129.004L104.255 131.798C100.49 131.442 95.0557 133.935 93.3026 138.084C91.7799 141.682 91.9056 150.915 95.2373 153.709C94.8602 154.484 94.455 155.358 94.022 156.301C89.0698 152.738 88.7276 141.737 90.7252 137.002C92.9603 131.624 99.6726 128.543 104.52 129.004Z" fill="#E0E0E0"/>
<path d="M105.121 128.334L104.199 128.236C104.005 128.219 103.812 128.274 103.657 128.392C103.502 128.509 103.396 128.68 103.361 128.872C103.188 129.898 103.188 130.946 103.361 131.973C103.386 132.145 103.469 132.305 103.596 132.425C103.722 132.545 103.885 132.619 104.059 132.636L105.554 132.776L105.121 128.334Z" fill="#BA68C8"/>
<path d="M108.452 121.007L121.535 124.248C122.484 124.52 123.323 125.085 123.932 125.863C124.54 126.641 124.887 127.591 124.922 128.578V136.338C124.95 136.761 124.874 137.185 124.701 137.572C124.528 137.959 124.263 138.298 123.929 138.56C123.596 138.821 123.203 138.998 122.786 139.073C122.368 139.148 121.939 139.121 121.535 138.992L108.452 135.751C107.503 135.479 106.664 134.914 106.056 134.136C105.447 133.358 105.1 132.408 105.065 131.421V123.661C105.037 123.238 105.113 122.814 105.286 122.427C105.459 122.04 105.724 121.701 106.058 121.439C106.392 121.178 106.784 121.002 107.201 120.926C107.619 120.851 108.048 120.879 108.452 121.007Z" fill="#37474F"/>
<path d="M109.284 124.408C109.854 124.57 110.359 124.908 110.724 125.375C111.09 125.843 111.297 126.414 111.316 127.007C111.333 127.26 111.287 127.514 111.184 127.746C111.08 127.978 110.92 128.182 110.72 128.338C110.52 128.494 110.284 128.599 110.033 128.644C109.783 128.688 109.526 128.67 109.284 128.592C108.715 128.43 108.213 128.092 107.849 127.626C107.485 127.161 107.278 126.591 107.258 126.001C107.242 125.748 107.288 125.495 107.391 125.263C107.495 125.032 107.653 124.829 107.853 124.673C108.052 124.516 108.286 124.41 108.535 124.364C108.785 124.318 109.042 124.333 109.284 124.408Z" fill="#BA68C8"/>
<path d="M109.284 130.059C109.854 130.22 110.359 130.559 110.724 131.026C111.09 131.493 111.297 132.065 111.316 132.657C111.333 132.911 111.287 133.165 111.184 133.397C111.08 133.629 110.92 133.832 110.72 133.989C110.52 134.145 110.284 134.25 110.033 134.294C109.783 134.339 109.526 134.321 109.284 134.243C108.715 134.081 108.213 133.742 107.849 133.277C107.485 132.811 107.278 132.242 107.258 131.651C107.24 131.398 107.285 131.144 107.388 130.912C107.491 130.679 107.649 130.476 107.849 130.319C108.049 130.162 108.284 130.056 108.534 130.011C108.784 129.965 109.041 129.982 109.284 130.059Z" fill="#BA68C8"/>
<path d="M138.494 150.014C137.607 150.573 132.948 151.6 130.329 151.642C128.093 151.677 127.332 153.779 129.253 154.932C131.174 156.084 132.668 155.63 132.389 156.328C132.11 157.027 128.897 158.564 125.942 159.653C123.267 160.638 118.957 163.725 124.084 167.93C129.211 172.135 136.028 169.02 139.569 167.127C143.111 165.234 147.406 160.142 148.468 157.097L138.494 150.014Z" fill="#455A64"/>
<path d="M141.071 148.156C139.618 147.458 138.277 149.393 138.312 151.306C138.392 152.421 138.699 153.507 139.214 154.498C139.73 155.489 140.442 156.364 141.308 157.069C143.599 159.018 146.854 159.583 149.18 158.557C151.827 157.383 151.185 155.232 151.185 155.232L141.071 148.156Z" fill="#BA68C8"/>
<path d="M143.816 105.703C147.783 107.799 157.401 116.921 160.733 120.672C164.065 124.422 166.719 128.997 166.893 131.847C167.04 134.222 163.338 143.791 151.185 155.246C150.151 156.224 148.293 157.181 146.924 157.055C143.432 156.741 141.378 154.82 140.533 152.089C140.187 150.763 140.38 149.354 141.071 148.17C143.544 144.804 149.963 136.666 150.458 133.579C149.229 130.017 143.173 126.643 139.863 124.667C139.863 124.667 131.446 122.313 132.179 112.918C132.913 103.524 141.728 103.321 143.816 105.703Z" fill="#F0F0F0"/>
<path d="M143.816 105.703C143.358 105.266 142.802 104.943 142.195 104.762C141.588 104.581 140.947 104.547 140.324 104.663C135.93 105.626 133.206 110.362 134.275 116.893C134.973 121.167 136.643 123.053 139.863 124.653C135.546 125.253 131.195 122.11 130.266 116.425C129.19 109.894 132.871 103.056 138.396 102.155C139.569 102.039 140.746 102.327 141.732 102.973C142.718 103.618 143.453 104.582 143.816 105.703Z" fill="#BA68C8"/>
<path d="M51.8134 66.7286L55.18 70.0533L59.8318 69.1593C59.931 69.1401 60.0336 69.1492 60.1278 69.1857C60.2221 69.2221 60.3041 69.2843 60.3646 69.3652C60.4252 69.4461 60.4616 69.5425 60.4699 69.6432C60.4782 69.7438 60.458 69.8448 60.4115 69.9346L58.3161 74.1254L60.6001 78.2743C60.648 78.3622 60.6704 78.4616 60.6649 78.5615C60.6593 78.6615 60.626 78.7578 60.5687 78.8398C60.5113 78.9218 60.4323 78.9862 60.3403 79.0258C60.2484 79.0653 60.1473 79.0784 60.0483 79.0636L55.3686 78.3651L52.1277 81.8156C52.059 81.8885 51.9714 81.9408 51.8747 81.9666C51.7779 81.9924 51.6759 81.9907 51.5801 81.9616C51.4843 81.9326 51.3984 81.8774 51.3323 81.8022C51.2662 81.727 51.2223 81.6349 51.2057 81.5362L50.4304 76.8704L46.1627 74.8867C46.0732 74.8411 45.998 74.7716 45.9455 74.686C45.893 74.6003 45.8652 74.5018 45.8652 74.4013C45.8652 74.3008 45.893 74.2023 45.9455 74.1166C45.998 74.0309 46.0732 73.9615 46.1627 73.9159L50.3536 71.7436L50.9403 67.0429C50.9575 66.9507 50.9985 66.8646 51.0593 66.7931C51.1201 66.7217 51.1985 66.6674 51.2868 66.6356C51.375 66.6039 51.4701 66.5957 51.5624 66.612C51.6548 66.6283 51.7413 66.6685 51.8134 66.7286Z" fill="#FAFAFA"/>
<path d="M64.3649 74.9566C65.013 74.9566 65.5383 74.4312 65.5383 73.7831C65.5383 73.1351 65.013 72.6097 64.3649 72.6097C63.7168 72.6097 63.1915 73.1351 63.1915 73.7831C63.1915 74.4312 63.7168 74.9566 64.3649 74.9566Z" fill="#FAFAFA"/>
</svg>
