<svg width="252" height="259" viewBox="0 0 252 259" fill="none" xmlns="http://www.w3.org/2000/svg">
<path d="M122.216 167.217C160.444 167.217 191.433 136.227 191.433 98.0001C191.433 59.7728 160.444 28.7835 122.216 28.7835C83.9892 28.7835 52.9999 59.7728 52.9999 98.0001C52.9999 136.227 83.9892 167.217 122.216 167.217Z" fill="white"/>
<path d="M168.386 144.17C193.885 118.671 193.885 77.329 168.386 51.8302C142.887 26.3314 101.545 26.3314 76.0466 51.8302C50.5477 77.329 50.5477 118.671 76.0466 144.17C101.545 169.669 142.887 169.669 168.386 144.17Z" fill="#DBDBDB"/>
<path d="M63.3273 97.7465C61.169 97.4659 60.9316 97.2339 60.6294 95.0486C60.3488 97.2069 60.1222 97.4443 57.9315 97.7465C60.0898 98.027 60.3272 98.2537 60.6294 100.444C60.9316 98.2429 61.1582 98.0162 63.3273 97.7465Z" fill="#E5E5E5"/>
<path d="M220.354 147.177C222.822 147.177 224.822 145.177 224.822 142.709C224.822 140.242 222.822 138.242 220.354 138.242C217.887 138.242 215.886 140.242 215.886 142.709C215.886 145.177 217.887 147.177 220.354 147.177Z" fill="#E5E5E5"/>
<path d="M62.7067 39.6559C65.1741 39.6559 67.1744 37.6557 67.1744 35.1883C67.1744 32.7208 65.1741 30.7206 62.7067 30.7206C60.2393 30.7206 58.239 32.7208 58.239 35.1883C58.239 37.6557 60.2393 39.6559 62.7067 39.6559Z" fill="#E5E5E5"/>
<path d="M187.677 166.164C189.647 166.164 191.244 164.568 191.244 162.598C191.244 160.628 189.647 159.031 187.677 159.031C185.708 159.031 184.111 160.628 184.111 162.598C184.111 164.568 185.708 166.164 187.677 166.164Z" fill="#E5E5E5"/>
<path d="M196.102 139.692C196.899 137.891 196.086 135.784 194.284 134.987C192.483 134.189 190.377 135.003 189.579 136.804C188.782 138.605 189.596 140.712 191.397 141.509C193.198 142.307 195.304 141.493 196.102 139.692Z" fill="#E5E5E5"/>
<path d="M45.1922 147.673C47.162 147.673 48.7588 146.076 48.7588 144.107C48.7588 142.137 47.162 140.54 45.1922 140.54C43.2224 140.54 41.6256 142.137 41.6256 144.107C41.6256 146.076 43.2224 147.673 45.1922 147.673Z" fill="#E5E5E5"/>
<path d="M80.9066 193.677C82.8763 193.677 84.4731 192.081 84.4731 190.111C84.4731 188.141 82.8763 186.544 80.9066 186.544C78.9368 186.544 77.34 188.141 77.34 190.111C77.34 192.081 78.9368 193.677 80.9066 193.677Z" fill="#E5E5E5"/>
<path d="M35.9903 94.3935C37.3831 93.0006 37.3831 90.7424 35.9903 89.3496C34.5975 87.9567 32.3392 87.9567 30.9464 89.3496C29.5536 90.7424 29.5536 93.0006 30.9464 94.3935C32.3392 95.7863 34.5975 95.7863 35.9903 94.3935Z" fill="#E5E5E5"/>
<path d="M8.41481 168.501C9.52336 168.501 10.422 167.602 10.422 166.494C10.422 165.385 9.52336 164.486 8.41481 164.486C7.30625 164.486 6.40759 165.385 6.40759 166.494C6.40759 167.602 7.30625 168.501 8.41481 168.501Z" fill="#E5E5E5"/>
<path d="M202.435 172.229C203.543 172.229 204.442 171.331 204.442 170.222C204.442 169.114 203.543 168.215 202.435 168.215C201.326 168.215 200.428 169.114 200.428 170.222C200.428 171.331 201.326 172.229 202.435 172.229Z" fill="#E5E5E5"/>
<path d="M179.109 49.1038C180.218 49.1038 181.116 48.2052 181.116 47.0966C181.116 45.9881 180.218 45.0894 179.109 45.0894C178 45.0894 177.102 45.9881 177.102 47.0966C177.102 48.2052 178 49.1038 179.109 49.1038Z" fill="#E5E5E5"/>
<path d="M217.36 91.6169C218.468 91.6169 219.367 90.7182 219.367 89.6097C219.367 88.5011 218.468 87.6025 217.36 87.6025C216.251 87.6025 215.352 88.5011 215.352 89.6097C215.352 90.7182 216.251 91.6169 217.36 91.6169Z" fill="#E5E5E5"/>
<path d="M73.9784 189.291C75.087 189.291 75.9856 188.392 75.9856 187.283C75.9856 186.175 75.087 185.276 73.9784 185.276C72.8699 185.276 71.9712 186.175 71.9712 187.283C71.9712 188.392 72.8699 189.291 73.9784 189.291Z" fill="#E5E5E5"/>
<path d="M163.375 230.482H78.1224V258H163.375V230.482Z" fill="#949494" stroke="#8C8C8C" stroke-linecap="round" stroke-linejoin="round"/>
<path d="M114.36 28.681H87.9211V258H114.36V28.681Z" fill="#A3A3A3" stroke="#8C8C8C" stroke-linecap="round" stroke-linejoin="round"/>
<path d="M107.885 28.681H94.396V258H107.885V28.681Z" fill="#4F4F4F" stroke="#8C8C8C" stroke-linecap="round" stroke-linejoin="round"/>
<path d="M114.36 28.681H87.9211V40.0121H114.36V28.681Z" fill="#A3A3A3" stroke="#8C8C8C" stroke-linecap="round" stroke-linejoin="round"/>
<path d="M113.421 43.0607H110.47V46.3575H113.421V43.0607Z" fill="#949494" stroke="#8C8C8C" stroke-linecap="round" stroke-linejoin="round"/>
<path d="M113.421 50.21H110.47V53.5068H113.421V50.21Z" fill="#949494" stroke="#8C8C8C" stroke-linecap="round" stroke-linejoin="round"/>
<path d="M113.421 57.3594H110.47V60.6562H113.421V57.3594Z" fill="#949494" stroke="#8C8C8C" stroke-linecap="round" stroke-linejoin="round"/>
<path d="M113.421 64.5088H110.47V67.8056H113.421V64.5088Z" fill="#949494" stroke="#8C8C8C" stroke-linecap="round" stroke-linejoin="round"/>
<path d="M113.421 71.6581H110.47V74.9549H113.421V71.6581Z" fill="#949494" stroke="#8C8C8C" stroke-linecap="round" stroke-linejoin="round"/>
<path d="M113.421 78.8021H110.47V82.0989H113.421V78.8021Z" fill="#949494" stroke="#8C8C8C" stroke-linecap="round" stroke-linejoin="round"/>
<path d="M113.421 85.9514H110.47V89.2482H113.421V85.9514Z" fill="#949494" stroke="#8C8C8C" stroke-linecap="round" stroke-linejoin="round"/>
<path d="M113.421 93.1008H110.47V96.3976H113.421V93.1008Z" fill="#949494" stroke="#8C8C8C" stroke-linecap="round" stroke-linejoin="round"/>
<path d="M113.421 100.25H110.47V103.547H113.421V100.25Z" fill="#949494" stroke="#8C8C8C" stroke-linecap="round" stroke-linejoin="round"/>
<path d="M113.421 107.394H110.47V110.691H113.421V107.394Z" fill="#949494" stroke="#8C8C8C" stroke-linecap="round" stroke-linejoin="round"/>
<path d="M113.421 114.543H110.47V117.84H113.421V114.543Z" fill="#949494" stroke="#8C8C8C" stroke-linecap="round" stroke-linejoin="round"/>
<path d="M113.421 121.693H110.47V124.99H113.421V121.693Z" fill="#949494" stroke="#8C8C8C" stroke-linecap="round" stroke-linejoin="round"/>
<path d="M113.421 128.842H110.47V132.139H113.421V128.842Z" fill="#949494" stroke="#8C8C8C" stroke-linecap="round" stroke-linejoin="round"/>
<path d="M113.421 135.992H110.47V139.288H113.421V135.992Z" fill="#949494" stroke="#8C8C8C" stroke-linecap="round" stroke-linejoin="round"/>
<path d="M113.421 143.135H110.47V146.432H113.421V143.135Z" fill="#949494" stroke="#8C8C8C" stroke-linecap="round" stroke-linejoin="round"/>
<path d="M113.421 150.285H110.47V153.582H113.421V150.285Z" fill="#949494" stroke="#8C8C8C" stroke-linecap="round" stroke-linejoin="round"/>
<path d="M113.421 157.434H110.47V160.731H113.421V157.434Z" fill="#949494" stroke="#8C8C8C" stroke-linecap="round" stroke-linejoin="round"/>
<path d="M113.421 164.583H110.47V167.88H113.421V164.583Z" fill="#949494" stroke="#8C8C8C" stroke-linecap="round" stroke-linejoin="round"/>
<path d="M113.421 171.728H110.47V175.024H113.421V171.728Z" fill="#949494" stroke="#8C8C8C" stroke-linecap="round" stroke-linejoin="round"/>
<path d="M113.421 178.877H110.47V182.174H113.421V178.877Z" fill="#949494" stroke="#8C8C8C" stroke-linecap="round" stroke-linejoin="round"/>
<path d="M113.421 186.026H110.47V189.323H113.421V186.026Z" fill="#949494" stroke="#8C8C8C" stroke-linecap="round" stroke-linejoin="round"/>
<path d="M113.421 193.176H110.47V196.472H113.421V193.176Z" fill="#949494" stroke="#8C8C8C" stroke-linecap="round" stroke-linejoin="round"/>
<path d="M113.421 200.32H110.47V203.616H113.421V200.32Z" fill="#949494" stroke="#8C8C8C" stroke-linecap="round" stroke-linejoin="round"/>
<path d="M113.421 207.469H110.47V210.766H113.421V207.469Z" fill="#949494" stroke="#8C8C8C" stroke-linecap="round" stroke-linejoin="round"/>
<path d="M113.421 214.618H110.47V217.915H113.421V214.618Z" fill="#949494" stroke="#8C8C8C" stroke-linecap="round" stroke-linejoin="round"/>
<path d="M113.421 221.768H110.47V225.064H113.421V221.768Z" fill="#949494" stroke="#8C8C8C" stroke-linecap="round" stroke-linejoin="round"/>
<path d="M113.421 228.917H110.47V232.214H113.421V228.917Z" fill="#949494" stroke="#8C8C8C" stroke-linecap="round" stroke-linejoin="round"/>
<path d="M113.421 236.061H110.47V239.358H113.421V236.061Z" fill="#949494" stroke="#8C8C8C" stroke-linecap="round" stroke-linejoin="round"/>
<path d="M113.421 243.21H110.47V246.507H113.421V243.21Z" fill="#949494" stroke="#8C8C8C" stroke-linecap="round" stroke-linejoin="round"/>
<path d="M114.171 250.36H108.123V253.656H114.171V250.36Z" fill="#949494" stroke="#8C8C8C" stroke-linecap="round" stroke-linejoin="round"/>
<path d="M107.831 71.4099H47.793V78.6564H107.831V71.4099Z" fill="#336699"/>
<path d="M107.831 70.3955H47.793V77.642H107.831V70.3955Z" fill="#949494" stroke="#8C8C8C" stroke-linecap="round" stroke-linejoin="round"/>
<path d="M107.831 64.703H47.793V77.642H107.831V64.703Z" stroke="#8C8C8C" stroke-linecap="round" stroke-linejoin="round"/>
<path d="M107.831 70.3955H88.7197V77.642H107.831V70.3955Z" fill="#707070" stroke="#8C8C8C" stroke-linecap="round" stroke-linejoin="round"/>
<path d="M47.793 70.3955L54.4135 64.962" stroke="#8C8C8C" stroke-linecap="round" stroke-linejoin="round"/>
<path d="M54.4135 70.3955L47.793 64.962" stroke="#8C8C8C" stroke-linecap="round" stroke-linejoin="round"/>
<path d="M54.7103 70.3955L61.3309 64.962" stroke="#8C8C8C" stroke-linecap="round" stroke-linejoin="round"/>
<path d="M61.3309 70.3955L54.7103 64.962" stroke="#8C8C8C" stroke-linecap="round" stroke-linejoin="round"/>
<path d="M61.6277 70.3955L68.2483 64.962" stroke="#8C8C8C" stroke-linecap="round" stroke-linejoin="round"/>
<path d="M68.2483 70.3955L61.6277 64.962" stroke="#8C8C8C" stroke-linecap="round" stroke-linejoin="round"/>
<path d="M68.5504 70.3955L75.171 64.962" stroke="#8C8C8C" stroke-linecap="round" stroke-linejoin="round"/>
<path d="M75.171 70.3955L68.5504 64.962" stroke="#8C8C8C" stroke-linecap="round" stroke-linejoin="round"/>
<path d="M75.4678 70.3955L82.0883 64.962" stroke="#8C8C8C" stroke-linecap="round" stroke-linejoin="round"/>
<path d="M82.0883 70.3955L75.4678 64.962" stroke="#8C8C8C" stroke-linecap="round" stroke-linejoin="round"/>
<path d="M82.385 70.3955L89.0056 64.962" stroke="#8C8C8C" stroke-linecap="round" stroke-linejoin="round"/>
<path d="M89.0056 70.3955L82.385 64.962" stroke="#8C8C8C" stroke-linecap="round" stroke-linejoin="round"/>
<path d="M89.3079 70.3955L95.9284 64.962" stroke="#8C8C8C" stroke-linecap="round" stroke-linejoin="round"/>
<path d="M95.9284 70.3955L89.3079 64.962" stroke="#8C8C8C" stroke-linecap="round" stroke-linejoin="round"/>
<path d="M96.2251 70.3955L102.846 64.962" stroke="#8C8C8C" stroke-linecap="round" stroke-linejoin="round"/>
<path d="M102.846 70.3955L96.2251 64.962" stroke="#8C8C8C" stroke-linecap="round" stroke-linejoin="round"/>
<path d="M107.831 113.07H47.793V120.317H107.831V113.07Z" fill="#336699"/>
<path d="M107.831 112.056H47.793V119.303H107.831V112.056Z" fill="#949494" stroke="#8C8C8C" stroke-linecap="round" stroke-linejoin="round"/>
<path d="M107.831 106.364H47.793V119.303H107.831V106.364Z" stroke="#8C8C8C" stroke-linecap="round" stroke-linejoin="round"/>
<path d="M107.831 112.056H88.7197V119.303H107.831V112.056Z" fill="#707070" stroke="#8C8C8C" stroke-linecap="round" stroke-linejoin="round"/>
<path d="M47.793 112.056L54.4135 106.622" stroke="#8C8C8C" stroke-linecap="round" stroke-linejoin="round"/>
<path d="M54.4135 112.056L47.793 106.622" stroke="#8C8C8C" stroke-linecap="round" stroke-linejoin="round"/>
<path d="M54.7103 112.056L61.3309 106.622" stroke="#8C8C8C" stroke-linecap="round" stroke-linejoin="round"/>
<path d="M61.3309 112.056L54.7103 106.622" stroke="#8C8C8C" stroke-linecap="round" stroke-linejoin="round"/>
<path d="M61.6277 112.056L68.2483 106.622" stroke="#8C8C8C" stroke-linecap="round" stroke-linejoin="round"/>
<path d="M68.2483 112.056L61.6277 106.622" stroke="#8C8C8C" stroke-linecap="round" stroke-linejoin="round"/>
<path d="M68.5504 112.056L75.171 106.622" stroke="#8C8C8C" stroke-linecap="round" stroke-linejoin="round"/>
<path d="M75.171 112.056L68.5504 106.622" stroke="#8C8C8C" stroke-linecap="round" stroke-linejoin="round"/>
<path d="M75.4678 112.056L82.0883 106.622" stroke="#8C8C8C" stroke-linecap="round" stroke-linejoin="round"/>
<path d="M82.0883 112.056L75.4678 106.622" stroke="#8C8C8C" stroke-linecap="round" stroke-linejoin="round"/>
<path d="M82.385 112.056L89.0056 106.622" stroke="#8C8C8C" stroke-linecap="round" stroke-linejoin="round"/>
<path d="M89.0056 112.056L82.385 106.622" stroke="#8C8C8C" stroke-linecap="round" stroke-linejoin="round"/>
<path d="M89.3079 112.056L95.9284 106.622" stroke="#8C8C8C" stroke-linecap="round" stroke-linejoin="round"/>
<path d="M95.9284 112.056L89.3079 106.622" stroke="#8C8C8C" stroke-linecap="round" stroke-linejoin="round"/>
<path d="M96.2251 112.056L102.846 106.622" stroke="#8C8C8C" stroke-linecap="round" stroke-linejoin="round"/>
<path d="M102.846 112.056L96.2251 106.622" stroke="#8C8C8C" stroke-linecap="round" stroke-linejoin="round"/>
<path d="M128.184 258H154.623L154.623 28.681H128.184L128.184 258Z" fill="#A3A3A3" stroke="#8C8C8C" stroke-linecap="round" stroke-linejoin="round"/>
<path d="M134.659 258H148.148L148.148 28.681H134.659L134.659 258Z" fill="#4F4F4F" stroke="#8C8C8C" stroke-linecap="round" stroke-linejoin="round"/>
<path d="M128.184 40.0121H154.623V28.681L128.184 28.681V40.0121Z" fill="#A3A3A3" stroke="#8C8C8C" stroke-linecap="round" stroke-linejoin="round"/>
<path d="M129.128 46.3629H132.08V43.0661H129.128V46.3629Z" fill="#949494" stroke="#8C8C8C" stroke-linecap="round" stroke-linejoin="round"/>
<path d="M129.128 53.5123H132.08V50.2155H129.128V53.5123Z" fill="#949494" stroke="#8C8C8C" stroke-linecap="round" stroke-linejoin="round"/>
<path d="M129.128 60.6562H132.08V57.3594H129.128V60.6562Z" fill="#949494" stroke="#8C8C8C" stroke-linecap="round" stroke-linejoin="round"/>
<path d="M129.128 67.8055H132.08V64.5087H129.128V67.8055Z" fill="#949494" stroke="#8C8C8C" stroke-linecap="round" stroke-linejoin="round"/>
<path d="M129.128 74.955H132.08V71.6582H129.128V74.955Z" fill="#949494" stroke="#8C8C8C" stroke-linecap="round" stroke-linejoin="round"/>
<path d="M129.128 82.1042H132.08V78.8075H129.128V82.1042Z" fill="#949494" stroke="#8C8C8C" stroke-linecap="round" stroke-linejoin="round"/>
<path d="M129.128 89.2537H132.08V85.9569H129.128V89.2537Z" fill="#949494" stroke="#8C8C8C" stroke-linecap="round" stroke-linejoin="round"/>
<path d="M129.128 96.3976H132.08V93.1008H129.128V96.3976Z" fill="#949494" stroke="#8C8C8C" stroke-linecap="round" stroke-linejoin="round"/>
<path d="M129.128 103.547H132.08V100.25H129.128V103.547Z" fill="#949494" stroke="#8C8C8C" stroke-linecap="round" stroke-linejoin="round"/>
<path d="M129.128 110.696H132.08V107.399H129.128V110.696Z" fill="#949494" stroke="#8C8C8C" stroke-linecap="round" stroke-linejoin="round"/>
<path d="M129.128 117.846H132.08V114.549H129.128V117.846Z" fill="#949494" stroke="#8C8C8C" stroke-linecap="round" stroke-linejoin="round"/>
<path d="M129.128 124.99H132.08V121.693H129.128V124.99Z" fill="#949494" stroke="#8C8C8C" stroke-linecap="round" stroke-linejoin="round"/>
<path d="M129.128 132.139H132.08V128.842H129.128V132.139Z" fill="#949494" stroke="#8C8C8C" stroke-linecap="round" stroke-linejoin="round"/>
<path d="M129.128 139.283H132.08V135.986H129.128V139.283Z" fill="#949494" stroke="#8C8C8C" stroke-linecap="round" stroke-linejoin="round"/>
<path d="M129.128 146.438H132.08V143.141H129.128V146.438Z" fill="#949494" stroke="#8C8C8C" stroke-linecap="round" stroke-linejoin="round"/>
<path d="M129.128 153.587H132.08V150.29H129.128V153.587Z" fill="#949494" stroke="#8C8C8C" stroke-linecap="round" stroke-linejoin="round"/>
<path d="M129.128 160.731H132.08V157.434H129.128V160.731Z" fill="#949494" stroke="#8C8C8C" stroke-linecap="round" stroke-linejoin="round"/>
<path d="M129.128 167.88H132.08V164.584H129.128V167.88Z" fill="#949494" stroke="#8C8C8C" stroke-linecap="round" stroke-linejoin="round"/>
<path d="M129.128 175.03H132.08V171.733H129.128V175.03Z" fill="#949494" stroke="#8C8C8C" stroke-linecap="round" stroke-linejoin="round"/>
<path d="M129.128 182.179H132.08V178.882H129.128V182.179Z" fill="#949494" stroke="#8C8C8C" stroke-linecap="round" stroke-linejoin="round"/>
<path d="M129.128 189.323H132.08V186.026H129.128V189.323Z" fill="#949494" stroke="#8C8C8C" stroke-linecap="round" stroke-linejoin="round"/>
<path d="M129.128 196.472H132.08V193.176H129.128V196.472Z" fill="#949494" stroke="#8C8C8C" stroke-linecap="round" stroke-linejoin="round"/>
<path d="M129.128 203.622H132.08V200.325H129.128V203.622Z" fill="#949494" stroke="#8C8C8C" stroke-linecap="round" stroke-linejoin="round"/>
<path d="M129.128 210.771H132.08V207.474H129.128V210.771Z" fill="#949494" stroke="#8C8C8C" stroke-linecap="round" stroke-linejoin="round"/>
<path d="M129.128 217.915H132.08V214.618H129.128V217.915Z" fill="#949494" stroke="#8C8C8C" stroke-linecap="round" stroke-linejoin="round"/>
<path d="M129.128 225.064H132.08V221.768H129.128V225.064Z" fill="#949494" stroke="#8C8C8C" stroke-linecap="round" stroke-linejoin="round"/>
<path d="M129.128 232.214H132.08V228.917H129.128V232.214Z" fill="#949494" stroke="#8C8C8C" stroke-linecap="round" stroke-linejoin="round"/>
<path d="M129.128 239.363H132.08V236.066H129.128V239.363Z" fill="#949494" stroke="#8C8C8C" stroke-linecap="round" stroke-linejoin="round"/>
<path d="M129.128 246.512H132.08V243.216H129.128V246.512Z" fill="#949494" stroke="#8C8C8C" stroke-linecap="round" stroke-linejoin="round"/>
<path d="M128.378 253.656H134.427V250.36H128.378V253.656Z" fill="#949494" stroke="#8C8C8C" stroke-linecap="round" stroke-linejoin="round"/>
<path d="M134.648 78.651L194.687 78.651V71.4045H134.648V78.651Z" fill="#336699"/>
<path d="M134.648 77.6474L194.687 77.6474V70.4009H134.648V77.6474Z" fill="#949494" stroke="#8C8C8C" stroke-linecap="round" stroke-linejoin="round"/>
<path d="M134.648 77.6474L194.687 77.6474V64.7084H134.648V77.6474Z" stroke="#8C8C8C" stroke-linecap="round" stroke-linejoin="round"/>
<path d="M134.648 77.6474H153.76V70.4009H134.648V77.6474Z" fill="#707070" stroke="#8C8C8C" stroke-linecap="round" stroke-linejoin="round"/>
<path d="M194.687 70.3955L188.066 64.962" stroke="#8C8C8C" stroke-linecap="round" stroke-linejoin="round"/>
<path d="M188.066 70.3955L194.687 64.962" stroke="#8C8C8C" stroke-linecap="round" stroke-linejoin="round"/>
<path d="M187.769 70.3955L181.149 64.962" stroke="#8C8C8C" stroke-linecap="round" stroke-linejoin="round"/>
<path d="M181.149 70.3955L187.769 64.962" stroke="#8C8C8C" stroke-linecap="round" stroke-linejoin="round"/>
<path d="M180.852 70.3955L174.231 64.962" stroke="#8C8C8C" stroke-linecap="round" stroke-linejoin="round"/>
<path d="M174.231 70.3955L180.852 64.962" stroke="#8C8C8C" stroke-linecap="round" stroke-linejoin="round"/>
<path d="M173.929 70.3955L167.309 64.962" stroke="#8C8C8C" stroke-linecap="round" stroke-linejoin="round"/>
<path d="M167.309 70.3955L173.929 64.962" stroke="#8C8C8C" stroke-linecap="round" stroke-linejoin="round"/>
<path d="M167.012 70.3955L160.391 64.962" stroke="#8C8C8C" stroke-linecap="round" stroke-linejoin="round"/>
<path d="M160.391 70.3955L167.012 64.962" stroke="#8C8C8C" stroke-linecap="round" stroke-linejoin="round"/>
<path d="M160.095 70.3955L153.474 64.962" stroke="#8C8C8C" stroke-linecap="round" stroke-linejoin="round"/>
<path d="M153.474 70.3955L160.095 64.962" stroke="#8C8C8C" stroke-linecap="round" stroke-linejoin="round"/>
<path d="M153.172 70.3955L146.551 64.962" stroke="#8C8C8C" stroke-linecap="round" stroke-linejoin="round"/>
<path d="M146.551 70.3955L153.172 64.962" stroke="#8C8C8C" stroke-linecap="round" stroke-linejoin="round"/>
<path d="M146.254 70.3955L139.634 64.962" stroke="#8C8C8C" stroke-linecap="round" stroke-linejoin="round"/>
<path d="M139.634 70.3955L146.254 64.962" stroke="#8C8C8C" stroke-linecap="round" stroke-linejoin="round"/>
<path d="M134.648 120.312L194.687 120.312V113.065H134.648V120.312Z" fill="#336699"/>
<path d="M134.648 119.308L194.687 119.308V112.061H134.648V119.308Z" fill="#949494" stroke="#8C8C8C" stroke-linecap="round" stroke-linejoin="round"/>
<path d="M134.648 119.308L194.687 119.308V106.369H134.648V119.308Z" stroke="#8C8C8C" stroke-linecap="round" stroke-linejoin="round"/>
<path d="M134.648 119.308H153.76V112.061H134.648V119.308Z" fill="#707070" stroke="#8C8C8C" stroke-linecap="round" stroke-linejoin="round"/>
<path d="M194.687 112.056L188.066 106.622" stroke="#8C8C8C" stroke-linecap="round" stroke-linejoin="round"/>
<path d="M188.066 112.056L194.687 106.622" stroke="#8C8C8C" stroke-linecap="round" stroke-linejoin="round"/>
<path d="M187.769 112.056L181.149 106.622" stroke="#8C8C8C" stroke-linecap="round" stroke-linejoin="round"/>
<path d="M181.149 112.056L187.769 106.622" stroke="#8C8C8C" stroke-linecap="round" stroke-linejoin="round"/>
<path d="M180.852 112.056L174.231 106.622" stroke="#8C8C8C" stroke-linecap="round" stroke-linejoin="round"/>
<path d="M174.231 112.056L180.852 106.622" stroke="#8C8C8C" stroke-linecap="round" stroke-linejoin="round"/>
<path d="M173.929 112.056L167.309 106.622" stroke="#8C8C8C" stroke-linecap="round" stroke-linejoin="round"/>
<path d="M167.309 112.056L173.929 106.622" stroke="#8C8C8C" stroke-linecap="round" stroke-linejoin="round"/>
<path d="M167.012 112.056L160.391 106.622" stroke="#8C8C8C" stroke-linecap="round" stroke-linejoin="round"/>
<path d="M160.391 112.056L167.012 106.622" stroke="#8C8C8C" stroke-linecap="round" stroke-linejoin="round"/>
<path d="M160.095 112.056L153.474 106.622" stroke="#8C8C8C" stroke-linecap="round" stroke-linejoin="round"/>
<path d="M153.474 112.056L160.095 106.622" stroke="#8C8C8C" stroke-linecap="round" stroke-linejoin="round"/>
<path d="M153.172 112.056L146.551 106.622" stroke="#8C8C8C" stroke-linecap="round" stroke-linejoin="round"/>
<path d="M146.551 112.056L153.172 106.622" stroke="#8C8C8C" stroke-linecap="round" stroke-linejoin="round"/>
<path d="M146.254 112.056L139.634 106.622" stroke="#8C8C8C" stroke-linecap="round" stroke-linejoin="round"/>
<path d="M139.634 112.056L146.254 106.622" stroke="#8C8C8C" stroke-linecap="round" stroke-linejoin="round"/>
<path d="M128.988 28.681H113.281V258H128.988V28.681Z" fill="#D9D9D9" stroke="#8C8C8C" stroke-linecap="round" stroke-linejoin="round"/>
<path d="M158.519 224.546H154.105H89.011H84.5973V235.877H89.011V258H154.105V235.877H158.519V224.546Z" fill="white" stroke="#8C8C8C" stroke-linecap="round" stroke-linejoin="round"/>
<path d="M196.672 258C197.6 256.606 198.23 255.035 198.522 253.386C198.813 251.737 198.76 250.045 198.367 248.418C197.973 246.79 197.247 245.261 196.234 243.928C195.22 242.594 193.942 241.485 192.48 240.669C191.017 239.853 189.402 239.349 187.735 239.188C186.068 239.027 184.385 239.212 182.794 239.733C181.202 240.253 179.735 241.097 178.485 242.212C177.236 243.327 176.23 244.688 175.532 246.21C175.01 244.794 174.114 243.546 172.939 242.598C171.764 241.65 170.354 241.039 168.859 240.829C167.364 240.619 165.841 240.819 164.45 241.406C163.06 241.994 161.855 242.947 160.963 244.165C160.485 243.502 159.868 242.949 159.155 242.547C158.443 242.145 157.651 241.901 156.835 241.834C157.066 241.138 157.184 240.41 157.186 239.676C157.183 238.48 156.873 237.305 156.288 236.263C155.702 235.22 154.86 234.345 153.841 233.719C153.899 233.281 153.929 232.839 153.933 232.397C153.932 229.823 152.987 227.338 151.276 225.413C149.566 223.489 147.209 222.259 144.652 221.957L143.076 186.533H131.643L129.878 220.343L127.941 182.573H114.732L112.499 219.561L111.036 186.506H99.6028L97.7521 221.849H97.5471C94.7565 221.849 92.0803 222.957 90.1071 224.93C88.1339 226.904 87.0254 229.58 87.0254 232.37C87.0254 232.527 87.0254 232.683 87.0254 232.84C86.4952 232.711 85.9521 232.644 85.4066 232.64C83.5463 232.64 81.7621 233.379 80.4467 234.695C79.1312 236.01 78.3922 237.794 78.3922 239.655C78.3942 240.388 78.5126 241.116 78.7429 241.813C77.9273 241.88 77.1359 242.123 76.4233 242.525C75.7106 242.928 75.0938 243.48 74.6152 244.144C73.7236 242.926 72.5185 241.972 71.1281 241.385C69.7376 240.797 68.2139 240.598 66.7191 240.808C65.2243 241.018 63.8144 241.629 62.6394 242.576C61.4644 243.524 60.5684 244.772 60.0467 246.189C59.3354 244.685 58.3228 243.344 57.0718 242.248C55.8207 241.152 54.3578 240.325 52.7738 239.818C51.1898 239.311 49.5184 239.135 47.8635 239.3C46.2086 239.466 44.6053 239.97 43.1532 240.781C41.7011 241.592 40.4311 242.692 39.4219 244.014C38.4128 245.336 37.6861 246.852 37.2868 248.466C36.8876 250.081 36.8244 251.76 37.1011 253.4C37.3778 255.04 37.9885 256.606 38.8954 258H196.672Z" fill="#336699"/>
<path d="M189.102 258C188.503 256.822 187.649 255.791 186.602 254.985C185.555 254.178 184.341 253.615 183.048 253.337C181.756 253.059 180.418 253.073 179.132 253.377C177.845 253.682 176.643 254.269 175.613 255.097C175.316 254.205 174.807 253.399 174.13 252.748C173.453 252.096 172.627 251.619 171.724 251.358C170.821 251.097 169.869 251.059 168.948 251.248C168.028 251.437 167.167 251.847 166.44 252.442C166.144 250.989 165.49 249.632 164.536 248.496C163.583 247.36 162.36 246.481 160.979 245.938C159.599 245.395 158.105 245.206 156.633 245.389C155.161 245.571 153.757 246.119 152.551 246.982C152.426 245.239 151.868 243.556 150.928 242.083C149.988 240.61 148.696 239.395 147.168 238.547C145.641 237.699 143.926 237.245 142.179 237.227C140.432 237.208 138.708 237.625 137.163 238.441C135.59 235.918 133.42 233.823 130.844 232.34C128.268 230.857 125.367 230.032 122.396 229.939C119.425 229.846 116.477 230.487 113.814 231.805C111.15 233.123 108.852 235.078 107.124 237.496C106.245 236.289 105.119 235.283 103.821 234.545C102.523 233.806 101.083 233.353 99.5959 233.215C98.109 233.077 96.6097 233.257 95.1978 233.743C93.7859 234.23 92.4938 235.011 91.4074 236.036C90.321 237.06 89.4653 238.304 88.8972 239.685C88.3291 241.067 88.0617 242.553 88.1126 244.045C88.1636 245.538 88.5319 247.002 89.1929 248.341C89.8539 249.68 90.7925 250.863 91.9462 251.811C91.7542 252.304 91.6061 252.814 91.5038 253.333C90.4238 252.594 89.1939 252.102 87.902 251.893C86.61 251.683 85.2878 251.762 84.0297 252.123C82.7717 252.484 81.6087 253.118 80.624 253.98C79.6392 254.842 78.8568 255.911 78.3328 257.11C77.8103 256.393 77.1304 255.807 76.3453 255.395C75.5603 254.983 74.6911 254.757 73.8048 254.734C72.9185 254.711 72.0388 254.892 71.2335 255.262C70.4282 255.633 69.7188 256.184 69.16 256.872C68.2728 255.631 67.0808 254.639 65.6989 253.992C64.317 253.344 62.7917 253.064 61.27 253.177C59.7482 253.291 58.2813 253.794 57.0105 254.639C55.7397 255.483 54.7078 256.641 54.0142 258H189.102Z" fill="#336699"/>
<path opacity="0.3" d="M189.102 258C188.503 256.822 187.649 255.791 186.602 254.985C185.555 254.178 184.341 253.615 183.048 253.337C181.756 253.059 180.418 253.073 179.132 253.377C177.845 253.682 176.643 254.269 175.613 255.097C175.316 254.205 174.807 253.399 174.13 252.748C173.453 252.096 172.627 251.619 171.724 251.358C170.821 251.097 169.869 251.059 168.948 251.248C168.028 251.437 167.167 251.847 166.44 252.442C166.144 250.989 165.49 249.632 164.536 248.496C163.583 247.36 162.36 246.481 160.979 245.938C159.599 245.395 158.105 245.206 156.633 245.389C155.161 245.571 153.757 246.119 152.551 246.982C152.426 245.239 151.868 243.556 150.928 242.083C149.988 240.61 148.696 239.395 147.168 238.547C145.641 237.699 143.926 237.245 142.179 237.227C140.432 237.208 138.708 237.625 137.163 238.441C135.59 235.918 133.42 233.823 130.844 232.34C128.268 230.857 125.367 230.032 122.396 229.939C119.425 229.846 116.477 230.487 113.814 231.805C111.15 233.123 108.852 235.078 107.124 237.496C106.245 236.289 105.119 235.283 103.821 234.545C102.523 233.806 101.083 233.353 99.5959 233.215C98.109 233.077 96.6097 233.257 95.1978 233.743C93.7859 234.23 92.4938 235.011 91.4074 236.036C90.321 237.06 89.4653 238.304 88.8972 239.685C88.3291 241.067 88.0617 242.553 88.1126 244.045C88.1636 245.538 88.5319 247.002 89.1929 248.341C89.8539 249.68 90.7925 250.863 91.9462 251.811C91.7542 252.304 91.6061 252.814 91.5038 253.333C90.4238 252.594 89.1939 252.102 87.902 251.893C86.61 251.683 85.2878 251.762 84.0297 252.123C82.7717 252.484 81.6087 253.118 80.624 253.98C79.6392 254.842 78.8568 255.911 78.3328 257.11C77.8103 256.393 77.1304 255.807 76.3453 255.395C75.5603 254.983 74.6911 254.757 73.8048 254.734C72.9185 254.711 72.0388 254.892 71.2335 255.262C70.4282 255.633 69.7188 256.184 69.16 256.872C68.2728 255.631 67.0808 254.639 65.6989 253.992C64.317 253.344 62.7917 253.064 61.27 253.177C59.7482 253.291 58.2813 253.794 57.0105 254.639C55.7397 255.483 54.7078 256.641 54.0142 258H189.102Z" fill="black"/>
<path d="M111.295 173.67H99.3385L97.8439 178.327H112.79L111.295 173.67Z" fill="#D9D9D9" stroke="#263238" stroke-linecap="round" stroke-linejoin="round"/>
<path d="M109.892 181.855H100.747L99.6028 186.506H111.036L109.892 181.855Z" fill="#263238" stroke="#263238" stroke-linecap="round" stroke-linejoin="round"/>
<path d="M111.258 181.969H99.3762L97.8923 178.327H112.747L111.258 181.969Z" fill="#336699" stroke="#263238" stroke-linecap="round" stroke-linejoin="round"/>
<path d="M111.506 94.9947H99.1334V174.28H111.506V94.9947Z" fill="white" stroke="#263238" stroke-linecap="round" stroke-linejoin="round"/>
<path d="M107.734 99.2681H102.554V101.038H107.734V99.2681Z" fill="#263238"/>
<path d="M107.734 101.793H102.554V103.563H107.734V101.793Z" fill="#263238"/>
<path d="M105.317 80.1996C104.747 80.1992 104.192 80.3851 103.737 80.7289C103.282 81.0727 102.952 81.5556 102.797 82.1043L99.1334 95.0541H111.506L107.837 82.1043C107.682 81.5556 107.351 81.0727 106.897 80.7289C106.442 80.3851 105.887 80.1992 105.317 80.1996Z" fill="#D9D9D9" stroke="#263238" stroke-linecap="round" stroke-linejoin="round"/>
<path d="M143.459 173.67H131.508L130.013 178.327H144.954L143.459 173.67Z" fill="#D9D9D9" stroke="#263238" stroke-linecap="round" stroke-linejoin="round"/>
<path d="M142.057 181.855H132.911L131.767 186.506H143.2L142.057 181.855Z" fill="#263238" stroke="#263238" stroke-linecap="round" stroke-linejoin="round"/>
<path d="M143.427 181.969H131.54L130.056 178.327H144.911L143.427 181.969Z" fill="#336699" stroke="#263238" stroke-linecap="round" stroke-linejoin="round"/>
<path d="M143.67 94.9947H131.297V174.28H143.67V94.9947Z" fill="white" stroke="#263238" stroke-linecap="round" stroke-linejoin="round"/>
<path d="M136.666 102.603C136.666 101.912 137.011 101.464 137.702 101.464C138.393 101.464 138.744 101.912 138.744 102.603V104.939C138.744 105.63 138.404 106.083 137.702 106.083C137.001 106.083 136.666 105.63 136.666 104.939V102.603ZM137.163 104.971C137.163 105.381 137.341 105.624 137.702 105.624C138.064 105.624 138.242 105.381 138.242 104.971V102.603C138.242 102.193 138.069 101.944 137.702 101.944C137.335 101.944 137.163 102.193 137.163 102.603V104.971Z" fill="#263238"/>
<path d="M137.217 111.139C137.283 111.02 137.382 110.923 137.501 110.857C137.62 110.791 137.755 110.76 137.891 110.766C138.474 110.766 138.733 111.193 138.733 111.846V112.731C138.733 113.421 138.404 113.874 137.708 113.874C137.011 113.874 136.693 113.421 136.693 112.731V112.428H137.163V112.763C137.163 113.173 137.335 113.416 137.702 113.416C138.069 113.416 138.242 113.173 138.242 112.763V111.883C138.242 111.473 138.074 111.231 137.702 111.231C137.634 111.223 137.565 111.23 137.5 111.251C137.434 111.272 137.374 111.306 137.323 111.352C137.272 111.398 137.232 111.454 137.204 111.517C137.176 111.58 137.162 111.648 137.163 111.716V111.819H136.688L136.812 109.299H138.598V109.752H137.265L137.217 111.139Z" fill="#263238"/>
<path d="M138.738 118.153V118.25H138.263V118.132C138.263 117.722 138.096 117.484 137.724 117.484C137.351 117.484 137.184 117.732 137.184 118.213V119.232C137.236 119.083 137.335 118.955 137.467 118.867C137.598 118.779 137.755 118.737 137.913 118.747C138.495 118.747 138.754 119.168 138.754 119.826V120.511C138.754 121.202 138.414 121.655 137.718 121.655C137.022 121.655 136.677 121.202 136.677 120.511V118.202C136.677 117.484 137.001 117.036 137.718 117.036C138.436 117.036 138.738 117.463 138.738 118.153ZM137.179 119.869V120.549C137.179 120.959 137.346 121.202 137.718 121.202C138.091 121.202 138.258 120.959 138.258 120.549V119.869C138.258 119.464 138.085 119.216 137.718 119.216C137.351 119.216 137.179 119.443 137.179 119.869Z" fill="#263238"/>
<path d="M138.738 125.928V128.238C138.738 128.956 138.414 129.409 137.691 129.409C136.968 129.409 136.666 128.966 136.666 128.27V128.189H137.141V128.303C137.141 128.713 137.314 128.95 137.681 128.95C138.048 128.95 138.22 128.707 138.22 128.227V127.213C138.167 127.361 138.068 127.487 137.936 127.573C137.804 127.659 137.648 127.699 137.492 127.688C136.909 127.688 136.65 127.277 136.65 126.608V125.912C136.65 125.222 136.985 124.774 137.686 124.774C138.387 124.774 138.738 125.265 138.738 125.928ZM137.157 125.928V126.608C137.157 127.018 137.335 127.261 137.697 127.261C138.058 127.261 138.236 127.018 138.236 126.608V125.928C138.236 125.518 138.069 125.276 137.697 125.276C137.324 125.276 137.157 125.491 137.157 125.902V125.928Z" fill="#263238"/>
<path d="M137.681 135.182L136.936 137.135H136.456L137.368 134.799L136.515 132.603H137.055L137.756 134.416L138.463 132.603H138.932L138.085 134.799L138.992 137.135H138.452L137.681 135.182Z" fill="#263238"/>
<path d="M137.476 80.1996C136.906 80.2001 136.351 80.3863 135.897 80.73C135.442 81.0737 135.112 81.5561 134.956 82.1043L131.292 95.0541H143.664L139.995 82.1043C139.84 81.5556 139.51 81.0727 139.055 80.7289C138.6 80.3851 138.046 80.1992 137.476 80.1996Z" fill="#D9D9D9" stroke="#263238" stroke-linecap="round" stroke-linejoin="round"/>
<path d="M129.614 24.8231H113.006V50.523H129.614V24.8231Z" fill="white" stroke="#263238" stroke-linecap="round" stroke-linejoin="round"/>
<path d="M127.957 54.014H114.668L113.006 50.5662H129.619L127.957 54.014Z" fill="#336699" stroke="#263238" stroke-linecap="round" stroke-linejoin="round"/>
<path d="M127.957 86.178H114.668L113.006 82.7302H129.619L127.957 86.178Z" fill="#263238" stroke="#263238" stroke-linecap="round" stroke-linejoin="round"/>
<path d="M129.614 57.4026H113.006V83.1025H129.614V57.4026Z" fill="white" stroke="#263238" stroke-linecap="round" stroke-linejoin="round"/>
<path d="M127.957 53.9061H114.668L113.006 57.354H129.619L127.957 53.9061Z" fill="#D9D9D9" stroke="#263238" stroke-linecap="round" stroke-linejoin="round"/>
<path d="M129.614 89.5666H113.006V172.742H129.614V89.5666Z" fill="white" stroke="#263238" stroke-linecap="round" stroke-linejoin="round"/>
<path d="M113.022 97.207H129.625" stroke="#263238" stroke-linecap="round" stroke-linejoin="round"/>
<path d="M113.022 109.283H129.625" stroke="#263238" stroke-linecap="round" stroke-linejoin="round"/>
<path d="M113.022 121.358H129.625" stroke="#263238" stroke-linecap="round" stroke-linejoin="round"/>
<path d="M113.022 133.434H129.625" stroke="#263238" stroke-linecap="round" stroke-linejoin="round"/>
<path d="M113.022 145.504H129.625" stroke="#263238" stroke-linecap="round" stroke-linejoin="round"/>
<path d="M121.073 133.434V145.256" stroke="#263238" stroke-linecap="round" stroke-linejoin="round"/>
<path d="M126.841 178.078H115.984L114.63 182.729H128.2L126.841 178.078Z" fill="#263238" stroke="#263238" stroke-linecap="round" stroke-linejoin="round"/>
<path d="M127.909 178.418H114.711L113.065 172.747H129.56L127.909 178.418Z" fill="#336699" stroke="#263238" stroke-linecap="round" stroke-linejoin="round"/>
<path d="M121.288 161.772C119.576 161.779 117.936 162.465 116.727 163.678C115.519 164.892 114.84 166.535 114.84 168.247V178.116H127.763V168.226C127.757 166.512 127.073 164.871 125.859 163.661C124.645 162.452 123.002 161.772 121.288 161.772Z" stroke="#263238" stroke-linecap="round" stroke-linejoin="round"/>
<path d="M127.957 86.0756H114.668L113.006 89.518H129.619L127.957 86.0756Z" fill="#263238" stroke="#263238" stroke-linecap="round" stroke-linejoin="round"/>
<path d="M121.288 9.25637C120.327 9.25882 119.391 9.56626 118.615 10.1344C117.84 10.7026 117.264 11.5023 116.972 12.4183L112.995 24.8663H129.603L125.632 12.4183C125.338 11.4979 124.759 10.6951 123.978 10.1265C123.197 9.55789 122.254 9.25309 121.288 9.25637Z" fill="#D9D9D9" stroke="#263238" stroke-linecap="round" stroke-linejoin="round"/>
<path d="M114.668 148.817H109.914V150.215H114.668V148.817Z" fill="white" stroke="#263238" stroke-linecap="round" stroke-linejoin="round"/>
<path d="M132.571 148.817H127.817V150.215H132.571V148.817Z" fill="white" stroke="#263238" stroke-linecap="round" stroke-linejoin="round"/>
<path d="M6.35907 258H236.757" stroke="#263238" stroke-linecap="round" stroke-linejoin="round"/>
</svg>
